<?xml version="1.0" encoding="UTF-8" standalone="no"?>
<svg width="861px" height="142px" viewBox="0 0 861 142" version="1.1" xmlns="http://www.w3.org/2000/svg" xmlns:xlink="http://www.w3.org/1999/xlink" xmlns:sketch="http://www.bohemiancoding.com/sketch/ns">
    <path d="M42.976,54.865 C41.5,50.731 38.399,48.515 33.525,48.515 C28.651,48.515 23.925,50.583 20.381,54.275 L20.381,91.048 C23.04,93.264 27.322,95.479 31.309,95.479 C41.057,95.479 44.897,88.833 44.897,71.554 C44.897,64.317 44.306,58.558 42.976,54.865 L42.976,54.865 Z M55.973,102.568 C50.804,108.033 44.01,111.134 35.741,111.134 C29.833,111.134 24.221,109.657 19.938,107.146 C20.233,108.919 20.233,111.134 20.233,113.349 L20.233,136.978 L1.181,142 L1.181,54.57 C1.181,44.675 1.034,41.869 0,35.519 L17.575,32.417 C18.314,35.076 18.757,37.143 18.904,39.506 C22.301,35.371 29.833,32.417 37.512,32.417 C42.829,32.417 48.294,34.19 52.428,36.996 C60.552,42.46 66.459,52.207 66.459,69.634 C66.459,85.88 63.801,94.15 55.973,102.568 L55.973,102.568 Z" id="Fill-1" fill="#DF5278" sketch:type="MSShapeGroup" mask="url(#mask-2)"></path>
    <path d="M118.739,62.545 C118.739,56.933 118.148,53.98 116.375,51.173 C114.456,48.22 111.65,46.743 107.662,46.743 C100.131,46.743 95.848,52.65 95.848,63.136 L95.848,63.432 L118.739,63.432 L118.739,62.545 L118.739,62.545 Z M95.552,77.905 L95.552,78.495 C95.552,90.163 101.312,96.808 111.502,96.808 C118.296,96.808 124.646,94.298 130.702,89.277 L138.381,101.091 C129.668,108.18 120.511,111.577 109.878,111.577 C88.168,111.577 74.138,96.218 74.138,72.44 C74.138,58.853 76.944,49.844 83.589,42.46 C89.792,35.519 97.324,32.27 107.367,32.27 C116.081,32.27 124.351,35.223 129.225,40.245 C136.166,47.334 139.267,57.524 139.267,73.326 L139.267,77.905 L95.552,77.905 L95.552,77.905 Z" id="Fill-4" fill="#DF5278" sketch:type="MSShapeGroup"></path>
    <path d="M192.965,57.967 C191.488,51.469 187.352,48.368 182.183,48.368 C177.015,48.368 173.47,51.616 170.959,54.423 L170.959,89.277 C173.618,91.64 176.719,94.15 182.036,94.15 C186.909,94.15 190.011,92.23 191.635,88.243 C193.408,84.107 193.85,80.12 193.85,70.816 C193.85,64.022 193.703,61.216 192.965,57.967 L192.965,57.967 Z M202.268,105.079 C197.1,109.214 191.931,110.986 185.728,110.986 C178.344,110.986 173.174,108.771 168.892,104.045 C168.301,106.704 168.154,107.442 166.824,109.509 L149.102,109.509 C150.578,106.112 151.021,103.897 151.021,93.411 L151.021,23.408 C151.021,14.104 150.727,9.083 149.693,4.8 L169.925,0.074 C170.516,5.243 170.665,8.344 170.665,13.514 L170.665,31.383 C170.665,33.599 170.516,36.848 170.221,38.029 C174.061,33.894 179.377,31.974 186.319,31.974 C204.779,31.974 216.299,46.743 216.299,70.373 C216.299,85.732 211.573,97.695 202.268,105.079 L202.268,105.079 Z" id="Fill-5" fill="#DF5278" sketch:type="MSShapeGroup"></path>
    <path d="M270.676,57.967 C269.2,51.469 265.064,48.368 259.895,48.368 C254.726,48.368 251.182,51.616 248.671,54.423 L248.671,89.277 C251.33,91.64 254.431,94.15 259.748,94.15 C264.621,94.15 267.723,92.23 269.347,88.243 C271.119,84.107 271.562,80.12 271.562,70.816 C271.562,64.022 271.415,61.216 270.676,57.967 L270.676,57.967 Z M279.98,105.079 C274.811,109.214 269.642,110.986 263.44,110.986 C256.056,110.986 250.886,108.771 246.604,104.045 C246.013,106.704 245.865,107.442 244.536,109.509 L226.813,109.509 C228.29,106.112 228.733,103.897 228.733,93.411 L228.733,23.408 C228.733,14.104 228.438,9.083 227.404,4.8 L247.637,0.074 C248.228,5.243 248.376,8.344 248.376,13.514 L248.376,31.383 C248.376,33.599 248.228,36.848 247.932,38.029 C251.773,33.894 257.089,31.974 264.031,31.974 C282.491,31.974 294.011,46.743 294.011,70.373 C294.011,85.732 289.285,97.695 279.98,105.079 L279.98,105.079 Z" id="Fill-6" fill="#DF5278" sketch:type="MSShapeGroup"></path>
    <path d="M325.63,111.282 C317.212,111.282 310.418,107.294 308.054,100.944 C306.578,97.104 306.282,94.741 306.282,83.959 L306.282,27.544 C306.282,17.649 305.988,11.593 305.249,4.8 L325.481,0.222 C326.22,4.357 326.515,9.23 326.515,19.864 L326.515,78.791 C326.515,91.787 326.664,93.559 327.845,95.627 C328.583,96.956 330.207,97.695 331.833,97.695 C332.571,97.695 333.014,97.695 334.048,97.399 L337.444,109.214 C334.048,110.543 329.912,111.282 325.63,111.282" id="Fill-7" fill="#DF5278" sketch:type="MSShapeGroup"></path>
    <path d="M384.126,62.545 C384.126,56.933 383.535,53.98 381.762,51.173 C379.843,48.22 377.036,46.743 373.049,46.743 C365.518,46.743 361.234,52.65 361.234,63.136 L361.234,63.432 L384.126,63.432 L384.126,62.545 L384.126,62.545 Z M360.939,77.905 L360.939,78.495 C360.939,90.163 366.699,96.808 376.889,96.808 C383.683,96.808 390.033,94.298 396.088,89.277 L403.768,101.091 C395.055,108.18 385.898,111.577 375.265,111.577 C353.555,111.577 339.524,96.218 339.524,72.44 C339.524,58.853 342.331,49.844 348.976,42.46 C355.179,35.519 362.711,32.27 372.754,32.27 C381.468,32.27 389.737,35.223 394.612,40.245 C401.553,47.334 404.654,57.524 404.654,73.326 L404.654,77.905 L360.939,77.905 L360.939,77.905 Z" id="Fill-8" fill="#DF5278" sketch:type="MSShapeGroup"></path>
    <path d="M496.513,137.472 C486.028,137.472 477.462,131.268 477.462,115.909 L477.462,90.507 C477.462,81.351 465.203,80.317 461.511,80.317 L461.511,63.481 C465.203,63.481 477.462,62.447 477.462,53.291 L477.462,27.741 C477.462,12.382 485.584,6.326 496.513,6.326 L512.02,6.326 L512.02,23.162 L504.783,23.162 C495.774,23.162 495.184,28.627 495.184,32.614 L495.184,56.392 C495.184,70.126 486.618,71.16 480.415,71.751 L480.415,72.047 C486.618,72.489 495.184,73.523 495.184,87.258 L495.184,111.183 C495.184,115.171 495.774,120.635 504.783,120.635 L512.02,120.635 L512.02,137.472 L496.513,137.472" id="Fill-9" fill="#DF5278" sketch:type="MSShapeGroup"></path>
    <path d="M567.549,106.556 C562.232,109.657 556.325,111.282 549.088,111.282 C528.265,111.282 516.154,96.808 516.154,72.292 C516.154,54.865 522.801,43.346 531.661,37.291 C536.683,33.894 544.067,31.679 550.418,31.679 C555.438,31.679 560.903,32.86 565.039,35.076 C567.844,36.553 569.173,37.586 572.423,40.392 L562.823,53.389 C558.836,49.697 554.553,47.481 550.861,47.481 C541.999,47.481 538.011,55.161 538.011,72.884 C538.011,82.778 539.341,88.685 541.852,91.935 C543.92,94.593 547.316,96.218 550.712,96.218 C555.291,96.218 559.426,94.298 564.3,90.015 L565.481,88.981 L574.49,100.944 C571.537,103.897 570.207,104.931 567.549,106.556" id="Fill-10" fill="#DF5278" sketch:type="MSShapeGroup"></path>
    <path d="M622.738,51.026 C620.819,48.515 617.717,47.038 614.173,47.038 C609.446,47.038 605.607,49.992 603.982,54.718 C602.653,58.706 601.915,64.022 601.915,71.554 C601.915,80.268 602.8,86.766 604.426,90.606 C606.198,94.741 610.628,96.808 614.468,96.808 C623.034,96.808 626.726,89.129 626.726,71.259 C626.726,61.068 625.396,54.423 622.738,51.026 L622.738,51.026 Z M638.836,100.648 C633.077,107.146 625.545,111.134 613.878,111.134 C593.349,111.134 579.909,95.774 579.909,71.997 C579.909,48.22 593.497,32.417 613.878,32.417 C624.658,32.417 633.077,36.109 639.574,43.789 C645.63,50.878 648.288,59.148 648.288,71.406 C648.288,84.403 645.334,93.264 638.836,100.648 L638.836,100.648 Z" id="Fill-11" fill="#DF5278" sketch:type="MSShapeGroup"></path>
    <path d="M704.66,53.832 C700.968,50.583 697.424,48.958 693.879,48.958 C685.018,48.958 681.178,56.342 681.178,73.179 C681.178,89.424 684.575,94.741 694.913,94.741 C698.605,94.741 702.74,92.23 704.66,89.867 L704.66,53.832 L704.66,53.832 Z M709.091,109.509 C708.5,108.328 708.205,107.146 707.909,105.079 C703.036,109.362 697.276,111.43 690.482,111.43 C671.284,111.43 659.173,96.513 659.173,73.031 C659.173,49.401 672.317,33.156 691.516,33.156 C696.98,33.156 701.263,34.485 704.955,37.438 C704.66,35.814 704.365,30.645 704.365,26.215 L704.365,0.222 L724.008,3.323 L724.008,81.892 C724.008,100.5 725.484,106.556 726.813,109.509 L709.091,109.509 L709.091,109.509 Z" id="Fill-12" fill="#DF5278" sketch:type="MSShapeGroup"></path>
    <path d="M783.714,62.545 C783.714,56.933 783.123,53.98 781.351,51.173 C779.431,48.22 776.625,46.743 772.637,46.743 C765.106,46.743 760.823,52.65 760.823,63.136 L760.823,63.432 L783.714,63.432 L783.714,62.545 L783.714,62.545 Z M760.527,77.905 L760.527,78.495 C760.527,90.163 766.287,96.808 776.478,96.808 C783.271,96.808 789.621,94.298 795.677,89.277 L803.357,101.091 C794.643,108.18 785.487,111.577 774.854,111.577 C753.143,111.577 739.113,96.218 739.113,72.44 C739.113,58.853 741.919,49.844 748.565,42.46 C754.767,35.519 762.3,32.27 772.343,32.27 C781.056,32.27 789.326,35.223 794.2,40.245 C801.141,47.334 804.242,57.524 804.242,73.326 L804.242,77.905 L760.527,77.905 L760.527,77.905 Z" id="Fill-13" fill="#DF5278" sketch:type="MSShapeGroup"></path>
    <path d="M844.56,90.507 L844.56,116.057 C844.56,131.417 836.437,137.472 825.508,137.472 L810.001,137.472 L810.001,120.635 L817.238,120.635 C826.247,120.635 826.837,115.171 826.837,111.183 L826.837,87.406 C826.837,73.671 835.403,72.637 841.606,72.047 L841.606,71.751 C835.403,71.308 826.837,70.274 826.837,56.539 L826.837,32.614 C826.837,28.627 826.247,23.162 817.238,23.162 L810.001,23.162 L810.001,6.326 L825.951,6.326 C835.994,6.326 844.56,12.529 844.56,27.888 L844.56,53.291 C844.56,62.447 856.375,63.481 860.51,63.481 L860.51,80.317 C856.375,80.317 844.56,81.351 844.56,90.507" id="Fill-14" fill="#DF5278" sketch:type="MSShapeGroup"></path>
</svg>